# xmcd
#
# Track frame offsets:
#	150
#	12453
#	26247
#	36057
#	53318
#	68535
#	82860
#	99462
#	114654
#	127677
#	143531
#	157668
#
# Disc length: 2266 seconds
#
# Revision: 0
# Processed by: cddbd v1.5.2PL0 Copyright (c) Steve Scherf et al.
# Submitted via: EasyCDDAExtractor 16.0.6.1
#
DISCID=7f08d80c
DTITLE=Συλλογικός δίσκος - Χρυσά λαϊκά 06
DYEAR=2006
DGENRE=Λαϊκή
TTITLE0=Μοσχολιού Βίκυ - Έτσι είν' η ζωή [Δ. Μούτση-Γ. Λογοθέτη]
TTITLE1=Νικολάου Φίλιππος - Όπου ο εγωϊσμός [Γ. Χατζηνάσιου-Τ. Οικονόμου]
TTITLE2=Δούκισσα - Του αγοριού απέναντι [Λ. Παπαδόπουλου-Μ. Πλέσσα]
TTITLE3=Πάνου Πόλυ - Ό,τι αρχίζει ωραία [Σ. Σκορδίλη-Λ. Νταϊάνα]
TTITLE4=Κόκοτας Σταμάτης - Η πρώτη αγάπη σου [Γ. Μητσάκης]
TTITLE5=Λίντα Μαίρη - Δώδεκα η ώρα θά 'ρθω  βρε Μαριώ [Β. Τσιτσάνη]
TTITLE6=Στανίση Κατερίνα - Στην αγορά του Πειραιά [Σ. Χρυσίνη-Ν. Δεπάστα]
TTITLE7=Δούκισσα - Νά 'χα  εκατό καρδιές [Ν. Δαλέζιου]
TTITLE8=Νικολάου Φίλιππος - Πού να γυρνάς [Α. Ρεπάνη-Ν. Γκούμα]
TTITLE9=Κόκοτας Σταμάτης - Απόψε στις ακρογιαλιές [Β. Τσιτσάνη]
TTITLE10=Λίντα Μαίρη - Δεν έχει δρόμο να διαβώ [Γ. Ζαμπέτα-Δ. Χριστοδούλου]
TTITLE11=Πάνου Πόλυ - Όταν πέσεις σ' άλλα χέρια [Α. Καλδάρα]
EXTD=
EXTT0=
EXTT1=
EXTT2=
EXTT3=
EXTT4=
EXTT5=
EXTT6=
EXTT7=
EXTT8=
EXTT9=
EXTT10=
EXTT11=
PLAYORDER=
